<mxfile host="app.diagrams.net" modified="2021-09-03T21:53:29.825Z" agent="5.0 (Windows)" etag="73326bNq2jNpPrZFTqGu" version="15.0.6" type="github">
  <diagram name="Page-1" id="9361dd3d-8414-5efd-6122-117bd74ce7a7">
    <mxGraphModel dx="914" dy="863" grid="1" gridSize="10" guides="1" tooltips="1" connect="1" arrows="1" fold="1" page="0" pageScale="1.5" pageWidth="826" pageHeight="1169" background="none" math="0" shadow="0">
      <root>
        <mxCell id="0" />
        <mxCell id="1" parent="0" />
        <mxCell id="22" value="Systéme" style="shadow=1;fillColor=#FFFFFF;gradientColor=#ffffff;" parent="1" vertex="1">
          <mxGeometry x="622.5" y="60" width="105" height="50" as="geometry" />
        </mxCell>
        <mxCell id="23" value="" style="edgeStyle=none;endArrow=none;dashed=1" parent="1" source="22" edge="1">
          <mxGeometry x="614.4878472222224" y="174.99999999999997" width="100" height="100" as="geometry">
            <mxPoint x="674.6527777777778" y="110" as="sourcePoint" />
            <mxPoint x="680" y="600" as="targetPoint" />
          </mxGeometry>
        </mxCell>
        <mxCell id="33" value="" style="edgeStyle=elbowEdgeStyle;elbow=horizontal;endArrow=none;dashed=1;entryX=0.229;entryY=1.002;entryDx=0;entryDy=0;entryPerimeter=0;" parent="1" target="eJLX1ok6A6sBzIT-RMLD-187" edge="1">
          <mxGeometry x="230.00000000000003" y="310" width="100" height="100" as="geometry">
            <mxPoint x="205" y="110" as="sourcePoint" />
            <mxPoint x="202" y="610" as="targetPoint" />
            <Array as="points">
              <mxPoint x="202" y="210" />
            </Array>
          </mxGeometry>
        </mxCell>
        <mxCell id="eJLX1ok6A6sBzIT-RMLD-94" value="1 : Demander l’accès au cloud" style="edgeStyle=none;verticalLabelPosition=top;verticalAlign=bottom;labelPosition=left;align=center;fillColor=#dae8fc;" edge="1" parent="1">
          <mxGeometry x="210" y="50" width="100" height="100" as="geometry">
            <mxPoint x="200" y="150" as="sourcePoint" />
            <mxPoint x="680" y="150" as="targetPoint" />
          </mxGeometry>
        </mxCell>
        <mxCell id="eJLX1ok6A6sBzIT-RMLD-95" value="" style="" vertex="1" parent="1">
          <mxGeometry x="670" y="150" width="10" height="70" as="geometry" />
        </mxCell>
        <mxCell id="eJLX1ok6A6sBzIT-RMLD-107" value="Utilisateur" style="shape=umlActor;verticalLabelPosition=bottom;verticalAlign=top;html=1;outlineConnect=0;fontSize=11;strokeColor=#000000;fillColor=#ffffff;gradientColor=#ffffff;" vertex="1" parent="1">
          <mxGeometry x="200" y="50" width="20" height="40" as="geometry" />
        </mxCell>
        <mxCell id="eJLX1ok6A6sBzIT-RMLD-169" value="3 : Entrer les informations d&#39;identification" style="edgeStyle=none;verticalLabelPosition=top;verticalAlign=bottom;labelPosition=left;align=center;fillColor=#dae8fc;fontSize=11;" edge="1" parent="1">
          <mxGeometry x="203.7" y="142" width="100" height="100" as="geometry">
            <mxPoint x="203.7000000000001" y="240" as="sourcePoint" />
            <mxPoint x="670" y="240" as="targetPoint" />
          </mxGeometry>
        </mxCell>
        <mxCell id="eJLX1ok6A6sBzIT-RMLD-170" value="" style="html=1;points=[];perimeter=orthogonalPerimeter;fontSize=10;strokeColor=#000000;fillColor=#FFFFFF;gradientColor=none;align=right;verticalAlign=bottom;" vertex="1" parent="1">
          <mxGeometry x="670" y="240" width="10" height="240" as="geometry" />
        </mxCell>
        <mxCell id="eJLX1ok6A6sBzIT-RMLD-182" value="6: Afficher un message d&#39;erreur" style="html=1;verticalAlign=bottom;endArrow=open;dashed=1;endSize=8;fontSize=11;" edge="1" parent="1">
          <mxGeometry relative="1" as="geometry">
            <mxPoint x="680" y="482" as="sourcePoint" />
            <mxPoint x="200" y="482" as="targetPoint" />
          </mxGeometry>
        </mxCell>
        <mxCell id="eJLX1ok6A6sBzIT-RMLD-187" value="&lt;div align=&quot;left&quot;&gt;&lt;b&gt;Interaction&lt;/b&gt;- Login&lt;br&gt;&lt;/div&gt;" style="shape=umlFrame;whiteSpace=wrap;html=1;fontSize=11;fontColor=none;strokeColor=#000000;fillColor=#FFFFFF;gradientColor=none;align=left;verticalAlign=bottom;width=210;height=20;" vertex="1" parent="1">
          <mxGeometry y="-20" width="880" height="620" as="geometry" />
        </mxCell>
        <mxCell id="eJLX1ok6A6sBzIT-RMLD-188" value="" style="html=1;points=[];perimeter=orthogonalPerimeter;fontSize=11;fontColor=none;strokeColor=#000000;fillColor=#FFFFFF;gradientColor=none;align=right;verticalAlign=bottom;" vertex="1" parent="1">
          <mxGeometry x="670" y="290" width="10" height="40" as="geometry" />
        </mxCell>
        <mxCell id="eJLX1ok6A6sBzIT-RMLD-189" value="&lt;div style=&quot;font-size: 11px&quot; align=&quot;left&quot;&gt;&lt;font style=&quot;font-size: 11px&quot;&gt;4 : &lt;span&gt;Vérifier &lt;/span&gt;les informations &lt;/font&gt;&lt;/div&gt;" style="edgeStyle=orthogonalEdgeStyle;html=1;align=left;spacingLeft=2;endArrow=block;rounded=0;entryX=1;entryY=0;fontSize=11;fontColor=none;strokeColor=#000000;" edge="1" target="eJLX1ok6A6sBzIT-RMLD-188" parent="1">
          <mxGeometry relative="1" as="geometry">
            <mxPoint x="675" y="270" as="sourcePoint" />
            <Array as="points">
              <mxPoint x="705" y="270" />
            </Array>
          </mxGeometry>
        </mxCell>
        <mxCell id="eJLX1ok6A6sBzIT-RMLD-193" value="5 : Confirmer l&#39;accèset générer un token&amp;nbsp; " style="html=1;verticalAlign=bottom;endArrow=open;dashed=1;endSize=8;fontSize=11;exitX=-0.413;exitY=0.598;exitDx=0;exitDy=0;exitPerimeter=0;" edge="1" parent="1">
          <mxGeometry relative="1" as="geometry">
            <mxPoint x="665.8699999999999" y="380" as="sourcePoint" />
            <mxPoint x="200" y="382" as="targetPoint" />
          </mxGeometry>
        </mxCell>
        <mxCell id="eJLX1ok6A6sBzIT-RMLD-198" value="2 :&amp;nbsp; Demander Login et Mot de passe" style="html=1;verticalAlign=bottom;endArrow=open;dashed=1;endSize=8;fontSize=11;exitX=-0.413;exitY=0.598;exitDx=0;exitDy=0;exitPerimeter=0;" edge="1" parent="1">
          <mxGeometry relative="1" as="geometry">
            <mxPoint x="665.8699999999999" y="200" as="sourcePoint" />
            <mxPoint x="200" y="202" as="targetPoint" />
          </mxGeometry>
        </mxCell>
        <mxCell id="eJLX1ok6A6sBzIT-RMLD-199" value="&lt;div style=&quot;font-size: 15px&quot; align=&quot;center&quot;&gt;&lt;font style=&quot;font-size: 15px&quot;&gt;alt&lt;/font&gt;&lt;/div&gt;" style="shape=umlFrame;whiteSpace=wrap;html=1;fontSize=11;fontColor=none;strokeColor=#000000;fillColor=#FFFFFF;gradientColor=none;align=center;verticalAlign=bottom;" vertex="1" parent="1">
          <mxGeometry x="40" y="330" width="800" height="220" as="geometry" />
        </mxCell>
        <mxCell id="eJLX1ok6A6sBzIT-RMLD-200" value="[ Informations Correctes]" style="text;html=1;align=center;verticalAlign=middle;resizable=0;points=[];autosize=1;strokeColor=none;fillColor=none;fontSize=11;fontColor=none;" vertex="1" parent="1">
          <mxGeometry x="210" y="350" width="130" height="20" as="geometry" />
        </mxCell>
        <mxCell id="eJLX1ok6A6sBzIT-RMLD-201" value="[ Informations Incorrectes]" style="text;whiteSpace=wrap;html=1;fontSize=11;fontColor=none;" vertex="1" parent="1">
          <mxGeometry x="220" y="440" width="140" height="30" as="geometry" />
        </mxCell>
        <mxCell id="eJLX1ok6A6sBzIT-RMLD-205" value="" style="edgeStyle=none;endArrow=none;dashed=1" edge="1" parent="1">
          <mxGeometry x="299.2478472222224" y="505" width="100" height="100" as="geometry">
            <mxPoint x="840" y="440" as="sourcePoint" />
            <mxPoint x="40" y="440" as="targetPoint" />
          </mxGeometry>
        </mxCell>
      </root>
    </mxGraphModel>
  </diagram>
</mxfile>
